<?xml version="1.0" encoding="UTF-8"?>
<svg version="1.1" xmlns="http://www.w3.org/2000/svg" width="783" height="210">
<path d="M0 0 C258.39 0 516.78 0 783 0 C783 69.3 783 138.6 783 210 C524.61 210 266.22 210 0 210 C0 140.7 0 71.4 0 0 Z " fill="#FAFAFA" transform="translate(0,0)"/>
<path d="M0 0 C3.53302923 1.87443673 5.24441362 3.97347455 7.4296875 7.2890625 C7.7596875 4.6490625 8.0896875 2.0090625 8.4296875 -0.7109375 C14.3696875 -0.7109375 20.3096875 -0.7109375 26.4296875 -0.7109375 C26.52036485 8.50397411 26.59361932 17.71858526 26.63693619 26.93384361 C26.65773509 31.21371527 26.6859102 35.49326359 26.73144531 39.77294922 C26.77518017 43.90972661 26.79888237 48.04619468 26.80919647 52.18318558 C26.81653862 53.75472502 26.83087516 55.32624917 26.85260773 56.89765549 C26.99380795 67.53883842 26.68303385 76.93117317 19.1171875 85.1640625 C9.7818887 93.58763361 0.19660002 94.68023898 -12.05078125 94.47265625 C-20.4446494 94.03479631 -28.36432238 91.47745433 -34.4375 85.4296875 C-37.95776867 81.08409268 -38.97247967 77.92771308 -39.5703125 72.2890625 C-36.48769794 72.1144228 -33.40635417 72.00812183 -30.3203125 71.9140625 C-29.44761719 71.86378906 -28.57492187 71.81351562 -27.67578125 71.76171875 C-25.1752072 71.7044537 -23.00872694 71.72312352 -20.5703125 72.2890625 C-18.1484375 75.1875 -18.1484375 75.1875 -16.5703125 78.2890625 C-11.67860954 81.55019781 -6.28210994 80.96970667 -0.5703125 80.2890625 C3.13272818 78.69716494 4.90306038 76.27050395 6.8046875 72.7265625 C7.73959801 67.58455471 7.58145225 62.49965212 7.4296875 57.2890625 C7.04039062 57.68738281 6.65109375 58.08570313 6.25 58.49609375 C0.14870892 64.27404452 -6.34881608 66.35635756 -14.6953125 66.6640625 C-22.50545699 66.35897873 -28.03093482 63.68933073 -33.7421875 58.3828125 C-42.39610071 48.4714931 -42.40994881 35.76232642 -41.5703125 23.2890625 C-40.32417905 15.73833862 -36.27278414 8.34507084 -30.35546875 3.4609375 C-20.18812099 -3.50902469 -11.56503019 -4.5539354 0 0 Z " fill="#141414" transform="translate(493.5703125,71.7109375)"/>
<path d="M0 0 C21.92169257 -0.04010881 21.92169257 -0.04010881 31.23242188 -0.04882812 C37.59725778 -0.0548168 43.96207936 -0.06191775 50.3269043 -0.07543945 C55.45563985 -0.08626755 60.58436006 -0.09227667 65.71310616 -0.09487724 C67.67441614 -0.09673163 69.63572524 -0.10035251 71.59702873 -0.10573006 C74.33415447 -0.11293946 77.07121597 -0.11399099 79.80834961 -0.11352539 C81.03725418 -0.1189183 81.03725418 -0.1189183 82.29098511 -0.12442017 C87.88594784 -0.11405216 87.88594784 -0.11405216 89 1 C89.09346915 2.65738443 89.11744977 4.31874644 89.11352539 5.97875977 C89.11340454 7.05468384 89.11328369 8.13060791 89.11315918 9.23913574 C89.10804321 10.37838501 89.10292725 11.51763428 89.09765625 12.69140625 C89.09664917 13.73228394 89.09564209 14.77316162 89.09460449 15.84558105 C89.08935401 19.75123184 89.07539289 23.65686697 89.0625 27.5625 C89.041875 36.286875 89.02125 45.01125 89 54 C59.63 54 30.26 54 0 54 C0 36.18 0 18.36 0 0 Z " fill="#121212" transform="translate(11,35)"/>
<path d="M0 0 C0.91644287 0.00523682 1.83288574 0.01047363 2.77709961 0.01586914 C4.26113281 0.02070312 4.26113281 0.02070312 5.77514648 0.02563477 C6.81606445 0.03401367 7.85698242 0.04239258 8.92944336 0.05102539 C10.49662109 0.05779297 10.49662109 0.05779297 12.09545898 0.06469727 C14.68600996 0.07652627 17.27644895 0.0930085 19.86694336 0.11352539 C21.06488443 3.32836005 22.26279344 6.54320665 23.46069336 9.75805664 C23.83953171 10.7747493 24.21837006 11.79144196 24.60868835 12.83894348 C26.72160534 18.50959236 28.83420817 24.18035802 30.94628906 29.85131836 C31.82217929 32.20304546 32.69807452 34.55477071 33.57397461 36.90649414 C34.01469803 38.08981323 34.45542145 39.27313232 34.90950012 40.49230957 C37.44692923 47.30426675 39.98660719 54.11537844 42.52890015 60.92552185 C44.01990085 64.92002176 45.50968856 68.91497341 46.99926758 72.91000366 C47.7029508 74.7963086 48.40721557 76.68239669 49.11206055 78.56826782 C50.08781249 81.17916295 51.06159562 83.79078407 52.03491211 86.40258789 C52.32460373 87.17617142 52.61429535 87.94975494 52.9127655 88.7467804 C54.86694336 93.99956409 54.86694336 93.99956409 54.86694336 95.11352539 C47.60694336 95.11352539 40.34694336 95.11352539 32.86694336 95.11352539 C30.55694336 88.51352539 28.24694336 81.91352539 25.86694336 75.11352539 C13.98694336 74.78352539 2.10694336 74.45352539 -10.13305664 74.11352539 C-11.12305664 77.74352539 -12.11305664 81.37352539 -13.13305664 85.11352539 C-14.35034251 88.51296922 -15.73289809 91.78211367 -17.13305664 95.11352539 C-24.06305664 95.11352539 -30.99305664 95.11352539 -38.13305664 95.11352539 C-36.29609247 88.9903115 -34.4795856 83.10305346 -32.15649414 77.18774414 C-31.87364563 76.45756577 -31.59079712 75.72738739 -31.29937744 74.9750824 C-30.68963107 73.40174 -30.07825984 71.8290265 -29.46539307 70.25689697 C-27.7998656 65.98429075 -26.14613632 61.70712501 -24.49243164 57.42993164 C-24.14375031 56.52869568 -23.79506897 55.62745972 -23.43582153 54.69891357 C-20.7221281 47.67168501 -18.05207109 40.62856816 -15.39868164 33.57836914 C-15.00987823 32.54562363 -14.62107483 31.51287811 -14.2204895 30.44883728 C-12.68416376 26.36564818 -11.14895187 22.28205379 -9.61859131 18.19662476 C-8.55529364 15.35820016 -7.48891196 12.5209503 -6.42211914 9.68383789 C-6.10301575 8.82841904 -5.78391235 7.97300018 -5.45513916 7.09165955 C-2.84124764 0.15121668 -2.84124764 0.15121668 0 0 Z " fill="#141414" transform="translate(678.133056640625,44.886474609375)"/>
<path d="M0 0 C2.40066585 1.848562 4.04167147 3.63996305 6 6 C6 6.66 6 7.32 6 8 C6.66 8 7.32 8 8 8 C8.24105469 7.40574219 8.48210937 6.81148437 8.73046875 6.19921875 C10.25169525 3.56398638 11.77597536 2.47083291 14.3125 0.8125 C15.07175781 0.30332031 15.83101563 -0.20585938 16.61328125 -0.73046875 C22.60996357 -3.92019339 30.11718055 -3.90714681 36.625 -2.38671875 C42.96143253 -0.19408128 47.52447341 3.20416446 51 9 C53.35624891 15.34119194 53.25821004 21.34810085 53.1953125 28.05859375 C53.1924826 29.20288345 53.18965271 30.34717316 53.18673706 31.52613831 C53.17558578 35.16336743 53.15049014 38.80034591 53.125 42.4375 C53.11496369 44.91080372 53.10583898 47.38411132 53.09765625 49.85742188 C53.07566292 55.90504377 53.0411676 61.95247946 53 68 C46.73 68 40.46 68 34 68 C33.98541748 66.60765137 33.97083496 65.21530273 33.95581055 63.78076172 C33.89773456 58.6032575 33.82050158 53.42618393 33.73754883 48.24902344 C33.70434334 46.01048789 33.67629784 43.77186951 33.65356445 41.53320312 C33.61993855 38.31083961 33.56761728 35.08923226 33.51171875 31.8671875 C33.50532883 30.87008759 33.4989389 29.87298767 33.49235535 28.84567261 C33.38036324 23.52435219 33.07893356 19.5487032 30 15 C25.97297943 12.31531962 22.7315637 12.31812263 18 13 C14.38474735 15.15376754 12.58742072 17.15641607 11 21 C10.67675168 23.29911665 10.67675168 23.29911665 10.68115234 25.76855469 C10.66128265 26.70922791 10.64141296 27.64990112 10.62094116 28.61907959 C10.60361435 30.13021332 10.60361435 30.13021332 10.5859375 31.671875 C10.56657135 32.70942932 10.5472052 33.74698364 10.5272522 34.815979 C10.46751158 38.12723592 10.4210927 41.43852771 10.375 44.75 C10.33681518 46.99610884 10.29776315 49.24220312 10.2578125 51.48828125 C10.16181439 56.9920691 10.0777626 62.49592551 10 68 C3.73 68 -2.54 68 -9 68 C-9.01458252 66.60765137 -9.02916504 65.21530273 -9.04418945 63.78076172 C-9.10226544 58.6032575 -9.17949842 53.42618393 -9.26245117 48.24902344 C-9.29565666 46.01048789 -9.32370216 43.77186951 -9.34643555 41.53320312 C-9.38006145 38.31083961 -9.43238272 35.08923226 -9.48828125 31.8671875 C-9.49467117 30.87008759 -9.5010611 29.87298767 -9.50764465 28.84567261 C-9.62012979 23.50092612 -9.97978359 19.6081556 -13 15 C-16.3533699 12.36520936 -19.87528406 12.57330525 -24 13 C-28.01859597 15.12303183 -30.33316951 16.77909823 -32 21 C-32.32324832 23.29911665 -32.32324832 23.29911665 -32.31884766 25.76855469 C-32.33871735 26.70922791 -32.35858704 27.64990112 -32.37905884 28.61907959 C-32.39638565 30.13021332 -32.39638565 30.13021332 -32.4140625 31.671875 C-32.43342865 32.70942932 -32.4527948 33.74698364 -32.4727478 34.815979 C-32.53248842 38.12723592 -32.5789073 41.43852771 -32.625 44.75 C-32.66318482 46.99610884 -32.70223685 49.24220312 -32.7421875 51.48828125 C-32.83818561 56.9920691 -32.9222374 62.49592551 -33 68 C-39.27 68 -45.54 68 -52 68 C-52 45.23 -52 22.46 -52 -1 C-46.06 -1 -40.12 -1 -34 -1 C-33.67 1.31 -33.34 3.62 -33 6 C-32.59910156 5.60167969 -32.19820313 5.20335938 -31.78515625 4.79296875 C-22.70908329 -3.66568429 -11.21864256 -5.59899104 0 0 Z " fill="#151515" transform="translate(310,72)"/>
<path d="M0 0 C0.71220703 -0.00773437 1.42441406 -0.01546875 2.15820312 -0.0234375 C10.5349163 0.00699561 19.90886837 1.75763283 26.140625 7.7734375 C29.33654974 11.53875112 30.67784833 13.88342773 30.75195312 18.74047852 C30.76867065 19.67227432 30.78538818 20.60407013 30.8026123 21.56410217 C30.81618774 22.57548752 30.82976318 23.58687286 30.84375 24.62890625 C30.86215942 25.67014145 30.88056885 26.71137665 30.89953613 27.78416443 C30.95840592 31.12688427 31.01110491 34.4696574 31.0625 37.8125 C31.11408143 41.13034305 31.16716004 44.44812177 31.22546387 47.76585388 C31.2617535 49.83159384 31.29426434 51.89740482 31.3223877 53.96327209 C31.33910522 54.91713303 31.35582275 55.87099396 31.37304688 56.85375977 C31.39183899 58.09380516 31.39183899 58.09380516 31.41101074 59.35890198 C31.61938837 63.33568667 32.12273513 67.29211615 32.5625 71.25 C26.2925 71.25 20.0225 71.25 13.5625 71.25 C12.9025 69.6 12.2425 67.95 11.5625 66.25 C11.01980469 66.59933594 10.47710937 66.94867188 9.91796875 67.30859375 C9.20253906 67.76363281 8.48710937 68.21867187 7.75 68.6875 C7.04230469 69.13996094 6.33460938 69.59242188 5.60546875 70.05859375 C0.9583144 72.76869332 -3.47507481 72.46836161 -8.6875 72.5 C-9.52152344 72.520625 -10.35554688 72.54125 -11.21484375 72.5625 C-18.016627 72.60521135 -22.40470404 71.17996106 -28.1875 67.5 C-32.62791087 63.05958913 -33.62027845 58.8425873 -33.8125 52.75 C-33.59892815 46.25385629 -32.41227096 42.31880767 -27.8125 37.5 C-21.11049389 32.46762005 -12.1718914 31.50603986 -4.125 30.1875 C-2.19043601 29.86912166 -0.25678738 29.545118 1.67578125 29.21484375 C2.51923096 29.0768335 3.36268066 28.93882324 4.23168945 28.79663086 C6.58810362 28.24399534 8.45255288 27.42003119 10.5625 26.25 C11.08192603 20.96156882 11.08192603 20.96156882 9.1875 16.3125 C4.64372221 13.34156837 -0.15820393 13.83803181 -5.4375 14.25 C-8.53105658 15.15180336 -8.53105658 15.15180336 -10.4375 17.25 C-11.0975 19.23 -11.7575 21.21 -12.4375 23.25 C-18.7075 23.25 -24.9775 23.25 -31.4375 23.25 C-30.45076694 15.35613553 -29.83104747 12.50842728 -24.4375 7.25 C-16.94445721 1.87839945 -9.1097967 -0.09839564 0 0 Z " fill="#141414" transform="translate(408.4375,68.75)"/>
<path d="M0 0 C5.84202889 3.51979637 8.57773441 8.34433845 10.59365845 14.70602417 C11.70346918 19.55985254 11.55614312 24.40010749 11.484375 29.35546875 C11.48013016 30.47473251 11.47588531 31.59399628 11.47151184 32.74717712 C11.45483156 36.29264233 11.41719857 39.83752152 11.37890625 43.3828125 C11.36384568 45.79881987 11.35015968 48.21483622 11.33789062 50.63085938 C11.30496284 56.52756666 11.25325403 62.42384051 11.19140625 68.3203125 C4.92140625 68.3203125 -1.34859375 68.3203125 -7.80859375 68.3203125 C-7.82317627 66.99378662 -7.83775879 65.66726074 -7.8527832 64.30053711 C-7.91093497 59.3596761 -7.98816709 54.41926278 -8.07104492 49.47875977 C-8.10421492 47.34406828 -8.13227133 45.20929077 -8.1550293 43.07446289 C-8.18872092 39.99848919 -8.24104478 36.92329824 -8.296875 33.84765625 C-8.30326492 32.89946518 -8.30965485 31.95127411 -8.3162384 30.97434998 C-8.45664418 24.58751241 -9.19014254 19.44231202 -13.43359375 14.3828125 C-17.22239123 12.68782415 -20.73623852 12.71228724 -24.80859375 13.3203125 C-28.15452713 14.74543227 -30.09981974 15.8426452 -31.70320129 19.18540955 C-33.68411244 25.0032166 -34.27545121 30.26299359 -34.3203125 36.38671875 C-34.3382637 37.30621811 -34.3562149 38.22571747 -34.37471008 39.17308044 C-34.42838636 42.07627942 -34.46257056 44.97931811 -34.49609375 47.8828125 C-34.52930459 49.86525648 -34.56379767 51.84767942 -34.59960938 53.83007812 C-34.68647433 58.66017386 -34.74690658 63.48956895 -34.80859375 68.3203125 C-41.07859375 68.3203125 -47.34859375 68.3203125 -53.80859375 68.3203125 C-53.80859375 45.5503125 -53.80859375 22.7803125 -53.80859375 -0.6796875 C-47.86859375 -0.6796875 -41.92859375 -0.6796875 -35.80859375 -0.6796875 C-35.47859375 2.2903125 -35.14859375 5.2603125 -34.80859375 8.3203125 C-34.00421875 7.2478125 -33.19984375 6.1753125 -32.37109375 5.0703125 C-24.05517667 -4.48620759 -11.11776493 -5.10382146 0 0 Z " fill="#151515" transform="translate(622.80859375,71.6796875)"/>
<path d="M0 0 C6.93 0 13.86 0 21 0 C21 31.35 21 62.7 21 95 C14.07 95 7.14 95 0 95 C0 63.65 0 32.3 0 0 Z " fill="#121212" transform="translate(741,45)"/>
<path d="M0 0 C6.93 0 13.86 0 21 0 C21 31.35 21 62.7 21 95 C14.07 95 7.14 95 0 95 C0 63.65 0 32.3 0 0 Z " fill="#121212" transform="translate(220,45)"/>
<path d="M0 0 C3.91209308 1.59415503 6.37218086 4.13893332 9.3125 7.125 C9.7981543 7.61709961 10.28380859 8.10919922 10.78417969 8.61621094 C14.12217223 12.02517741 17.29416353 15.54459156 20.390625 19.171875 C22.56250365 21.63896046 24.90208204 23.91278303 27.24609375 26.21484375 C29.71812977 28.73092495 31.99517336 31.40019107 34.2890625 34.078125 C35.93016977 35.92156057 37.64753342 37.61497301 39.4375 39.3125 C42 42 42 42 42 45 C29.79 45 17.58 45 5 45 C4.505 43.02 4.505 43.02 4 41 C2.35 41 0.7 41 -1 41 C-1.66 42.32 -2.32 43.64 -3 45 C-15.21 45 -27.42 45 -40 45 C-38.82328455 40.29313821 -37.34001512 39.05451034 -33.875 35.75 C-32.86524393 34.77283774 -31.85743245 33.79366209 -30.8515625 32.8125 C-30.36075195 32.33425781 -29.86994141 31.85601562 -29.36425781 31.36328125 C-26.97167661 28.97241271 -24.80383566 26.39877892 -22.609375 23.828125 C-20.43628215 21.35966031 -18.09527631 19.08464637 -15.75 16.78125 C-13.30333073 14.29089021 -11.05491413 11.64425405 -8.77734375 9 C-5.98879714 5.86211898 -3.00818762 2.92589677 0 0 Z " fill="#111111" transform="translate(103,93)"/>
<path d="M0 0 C5.94 0 11.88 0 18 0 C18 22.77 18 45.54 18 69 C12.06 69 6.12 69 0 69 C0 46.23 0 23.46 0 0 Z " fill="#111111" transform="translate(536,71)"/>
<path d="M0 0 C4.89228203 1.97773103 7.8522874 5.56882384 10.08984375 10.30859375 C12.57992306 17.67196134 11.58623304 25.87570169 8.390625 32.86328125 C5.98831258 36.55447477 3.11194339 38.51222412 -1 40 C-5.18227044 40.86934835 -8.28753909 40.33527572 -12.1875 38.5 C-17.10180581 34.13172817 -19.90012261 30.67904612 -20.44921875 23.9453125 C-20.50592306 22.44330393 -20.54342817 20.94045755 -20.5625 19.4375 C-20.57716309 18.71731689 -20.59182617 17.99713379 -20.60693359 17.25512695 C-20.48255731 10.70589121 -18.17998013 6.57634016 -13.9375 1.5625 C-9.39204605 -0.85529465 -5.03840661 -0.62315134 0 0 Z " fill="#F8F8F8" transform="translate(491,84)"/>
<path d="M0 0 C4.18465463 2.61631256 7.96613458 5.73638162 11.26171875 9.4140625 C11.26171875 10.0740625 11.26171875 10.7340625 11.26171875 11.4140625 C12.02484375 11.0840625 12.78796875 10.7540625 13.57421875 10.4140625 C16.26171875 9.4140625 16.26171875 9.4140625 19.26171875 9.4140625 C19.26171875 17.9940625 19.26171875 26.5740625 19.26171875 35.4140625 C15.03930444 34.56957964 13.2720329 34.06080589 9.8359375 31.91015625 C8.64194336 31.17055664 8.64194336 31.17055664 7.42382812 30.41601562 C6.60720703 29.89974609 5.79058594 29.38347656 4.94921875 28.8515625 C4.11326172 28.33142578 3.27730469 27.81128906 2.41601562 27.27539062 C0.3602767 25.99495895 -1.69085348 24.7077267 -3.73828125 23.4140625 C-2.3789104 20.5534734 -1.09307656 18.55478551 1.26171875 16.4140625 C0.35421875 15.6303125 -0.55328125 14.8465625 -1.48828125 14.0390625 C-1.99875 13.59820312 -2.50921875 13.15734375 -3.03515625 12.703125 C-6.57312108 10.02530759 -9.21756893 9.16776319 -13.66015625 9.2890625 C-14.60375 9.30453125 -15.54734375 9.32 -16.51953125 9.3359375 C-18.48308377 9.38760993 -20.4466257 9.43968668 -22.41015625 9.4921875 C-28.25389474 9.58746584 -33.1369599 9.11304149 -38.73828125 7.4140625 C-30.818611 -4.46544287 -12.16944802 -5.74381418 0 0 Z " fill="#1A1A1A" transform="translate(110.73828125,23.5859375)"/>
<path d="M0 0 C1.32 0.33 2.64 0.66 4 1 C4.08636719 1.556875 4.17273438 2.11375 4.26171875 2.6875 C5.57711934 9.83169404 8.19132039 15.03082442 13.1875 20.3125 C17.21310586 22.72786351 21.47435326 23.84002841 26 25 C26 25.99 26 26.98 26 28 C25.20335937 28.27972656 24.40671875 28.55945313 23.5859375 28.84765625 C14.90041274 32.13378545 10.39594007 35.20811987 6.25 43.5 C5.00639392 46.98209701 3.94769405 50.42792243 3 54 C1.515 53.505 1.515 53.505 0 53 C-0.5546875 51.21484375 -0.5546875 51.21484375 -0.875 48.9375 C-2.14822487 42.37308654 -5.11309979 37.9297843 -9.75 33.1875 C-13.66227959 30.55423489 -17.48035529 29.23536956 -22 28 C-22 27.01 -22 26.02 -22 25 C-21.27554688 24.76925781 -20.55109375 24.53851563 -19.8046875 24.30078125 C-10.15936089 21.17664528 -10.15936089 21.17664528 -3.7890625 13.66796875 C-1.89711297 9.19303847 -0.51126871 4.85705275 0 0 Z " fill="#171717" transform="translate(102,136)"/>
<path d="M0 0 C22.11 0 44.22 0 67 0 C68.53634851 3.07269702 68.12967825 6.29201118 68.11352539 9.66259766 C68.11367142 10.45292892 68.11381744 11.24326019 68.1139679 12.05754089 C68.11326983 14.67640911 68.10548239 17.29520667 68.09765625 19.9140625 C68.09579169 21.72724366 68.09436797 23.54042533 68.09336853 25.35360718 C68.08954632 30.13103623 68.07971855 34.90843499 68.06866455 39.68585205 C68.05844407 44.55879303 68.05386954 49.4317389 68.04882812 54.3046875 C68.03809603 63.86980499 68.02102314 73.43489998 68 83 C65.49450555 84.25274723 63.80264368 84.12029624 60.99951172 84.11352539 C59.43811966 84.11341209 59.43811966 84.11341209 57.84518433 84.11329651 C56.71807037 84.10813522 55.59095642 84.10297394 54.4296875 84.09765625 C53.27832306 84.0962413 52.12695862 84.09482635 50.94070435 84.09336853 C47.25211014 84.08775716 43.56357595 84.0752027 39.875 84.0625 C37.37890712 84.05748647 34.8828133 84.05292331 32.38671875 84.04882812 C26.25779191 84.03778403 20.12890024 84.0210348 14 84 C14 83.01 14 82.02 14 81 C30.5 81 47 81 64 81 C64 55.26 64 29.52 64 3 C42.88 3 21.76 3 0 3 C0 2.01 0 1.02 0 0 Z " fill="#3B3B3B" transform="translate(104,72)"/>
<path d="M0 0 C11.57983353 -0.76294657 11.57983353 -0.76294657 14.94140625 1.04296875 C19.47879827 5.6616275 19.14832798 10.05453745 19.14526367 16.15966797 C19.14862228 17.10938477 19.1519809 18.05910156 19.15544128 19.03759766 C19.16496995 22.18914077 19.1668954 25.34063086 19.16796875 28.4921875 C19.17118014 30.67693097 19.17454412 32.86167422 19.17805481 35.04641724 C19.18405098 39.63137307 19.18589422 44.21631005 19.18530273 48.80126953 C19.18520112 54.6816491 19.19885074 60.5619079 19.21607494 66.44225883 C19.22718405 70.95635536 19.22922227 75.4704226 19.22869301 79.9845314 C19.22987487 82.15269512 19.23430814 84.32085955 19.24202538 86.48900986 C19.25180264 89.51994064 19.24895605 92.55060811 19.24291992 95.58154297 C19.24853943 96.48039215 19.25415894 97.37924133 19.25994873 98.30532837 C19.25575424 99.1325238 19.25155975 99.95971924 19.24723816 100.8119812 C19.24778293 101.52838209 19.24832769 102.24478298 19.24888897 102.98289299 C18.95181755 105.39049205 18.28983212 106.94940521 17 109 C10.74626851 112.8262501 4.44211118 112.38793363 -2.71484375 112.29296875 C-3.92572159 112.28872391 -5.13659943 112.28447906 -6.38417053 112.28010559 C-10.23551057 112.26336989 -14.08631923 112.22572572 -17.9375 112.1875 C-20.55533096 112.17244662 -23.17317016 112.15875936 -25.79101562 112.14648438 C-32.19419042 112.11348299 -38.59705723 112.06333386 -45 112 C-45 111.01 -45 110.02 -45 109 C-44.31983826 108.99191315 -43.63967651 108.98382629 -42.93890381 108.97549438 C-35.86614128 108.88950402 -28.79366079 108.79000253 -21.72119141 108.68261719 C-19.08094007 108.64431033 -16.44063624 108.60946051 -13.80029297 108.578125 C-10.00729599 108.53251211 -6.21466095 108.47451044 -2.421875 108.4140625 C-1.23946228 108.40251129 -0.05704956 108.39096008 1.16119385 108.37905884 C2.26203308 108.35918915 3.36287231 108.33931946 4.49707031 108.31884766 C5.46525696 108.30552399 6.4334436 108.29220032 7.43096924 108.2784729 C10.10380537 107.9887479 11.74792801 107.4481262 14 106 C15.70763165 102.58473669 15.1564392 98.67463975 15.16113281 94.91625977 C15.16609772 93.97469025 15.17106262 93.03312073 15.17617798 92.0630188 C15.1908185 88.9391406 15.19760419 85.81531316 15.203125 82.69140625 C15.20887419 80.5266876 15.21463195 78.36196897 15.22039795 76.19725037 C15.23091284 71.65517946 15.23675254 67.11312629 15.24023438 62.57104492 C15.24572496 56.74208071 15.26976306 50.91334941 15.29820633 45.08445835 C15.31679915 40.61243497 15.32203648 36.14046812 15.32357025 31.66840935 C15.32660411 29.51894798 15.33465713 27.36948777 15.34775543 25.22006416 C15.36474835 22.21757218 15.36295239 19.21565488 15.35644531 16.21313477 C15.3656601 15.32004105 15.37487488 14.42694733 15.3843689 13.50679016 C15.37601517 12.28068024 15.37601517 12.28068024 15.36749268 11.02980042 C15.36895924 10.31985208 15.3704258 9.60990374 15.3719368 8.87844181 C14.88247817 6.40646388 13.97511585 5.52366991 12 4 C9.03756274 3.42052719 9.03756274 3.42052719 5.8125 3.3125 C4.72582031 3.24675781 3.63914063 3.18101563 2.51953125 3.11328125 C1.68808594 3.07589844 0.85664063 3.03851563 0 3 C0 2.01 0 1.02 0 0 Z " fill="#272727" transform="translate(161,64)"/>
<path d="M0 0 C3.17434471 1.38940132 5.16860916 2.98095737 7.50390625 5.52734375 C8.15697754 6.23197754 8.81004883 6.93661133 9.48291016 7.66259766 C10.1691748 8.41331543 10.85543945 9.1640332 11.5625 9.9375 C12.99728351 11.48698798 14.43348561 13.03516359 15.87109375 14.58203125 C16.57347168 15.33822754 17.27584961 16.09442383 17.99951172 16.87353516 C20.64819699 19.68901583 23.37275722 22.41061475 26.125 25.125 C29.97054491 28.94154382 33.68957024 32.70538841 37 37 C37 37.99 37 38.98 37 40 C32.46468245 40.77871907 28.52138336 40.94668005 24 40 C20.13592339 37.02842706 17.32885741 33.55023402 14.36035156 29.7109375 C12.14029042 26.91872851 9.68907297 24.35011621 7.25 21.75 C3.09116103 17.23204533 -0.99132234 12.65170786 -5 8 C-3.58208437 5.06553114 -2.01667393 2.56667591 0 0 Z " fill="#171717" transform="translate(126,98)"/>
<path d="M0 0 C0.62043647 11.61594942 0.62043647 11.61594942 -1.625 16.625 C-5.56333751 20.56333751 -8.96744525 22.15183813 -14.5 22.375 C-18.60242348 22.23640461 -21.51615845 21.26449701 -25 19 C-26.6061224 15.7877552 -26.46412505 12.48440151 -26 9 C-23.46146482 4.73064539 -19.29709754 3.89687515 -14.7421875 2.66015625 C-3.69230769 0 -3.69230769 0 0 0 Z " fill="#F7F7F7" transform="translate(420,107)"/>
<path d="M0 0 C2.68923367 3.19277032 3.95390894 6.24231634 5.26171875 10.19140625 C5.65810547 11.38314453 6.05449219 12.57488281 6.46289062 13.80273438 C7.06907227 15.66381836 7.06907227 15.66381836 7.6875 17.5625 C8.10322266 18.80708984 8.51894531 20.05167969 8.94726562 21.33398438 C12 30.5924415 12 30.5924415 12 34 C4.08 34 -3.84 34 -12 34 C-10.61526905 29.79981977 -9.22870973 25.60033698 -7.83740234 21.40234375 C-7.36495718 19.97497002 -6.89359118 18.54723862 -6.42333984 17.11914062 C-5.74602216 15.06284423 -5.06479456 13.00787843 -4.3828125 10.953125 C-3.97434082 9.71723633 -3.56586914 8.48134766 -3.14501953 7.20800781 C-2.23907583 4.66982012 -1.283643 2.36107828 0 0 Z " fill="#F4F4F4" transform="translate(686,69)"/>
<path d="M0 0 C0.66 0 1.32 0 2 0 C2.23074219 0.74765625 2.46148437 1.4953125 2.69921875 2.265625 C5.08710816 9.93405084 5.08710816 9.93405084 11 15 C13.64470466 16.12289136 16.27382442 17.07587268 19 18 C19 18.66 19 19.32 19 20 C18.40832031 20.15855469 17.81664062 20.31710938 17.20703125 20.48046875 C11.93723369 22.03647749 8.37371829 23.4355576 5 28 C3.77643247 30.94746024 2.82562108 33.91902379 2 37 C1.01 37 0.02 37 -1 37 C-1.2475 35.96875 -1.495 34.9375 -1.75 33.875 C-2.93663285 29.93283046 -4.1733304 27.10244225 -7 24 C-10.57490879 22.33377267 -14.21844143 21.10838786 -18 20 C-18 19.01 -18 18.02 -18 17 C-16.783125 16.71125 -15.56625 16.4225 -14.3125 16.125 C-9.50457002 14.96699655 -9.50457002 14.96699655 -5 13 C-3.75732962 10.81571431 -3.75732962 10.81571431 -3 8 C-2.46559699 6.55978389 -1.92355762 5.12238451 -1.375 3.6875 C-0.92125 2.470625 -0.4675 1.25375 0 0 Z " fill="#1C1C1C" transform="translate(155,32)"/>
<path d="M0 0 C0.99 0.33 1.98 0.66 3 1 C3.81640625 3.14453125 3.81640625 3.14453125 4.5625 5.8125 C5.77698243 9.16792774 6.42126095 10.63817417 9.48046875 12.55078125 C11.9691479 13.51606583 14.41486885 14.33891684 17 15 C15.66220195 17.6755961 14.37393383 17.79855665 11.625 18.875 C8.06541472 20.40940126 5.79335255 21.41329491 4 25 C3.27648573 26.98014432 2.59734611 28.97821315 2 31 C1.01 30.67 0.02 30.34 -1 30 C-1.309375 28.906875 -1.61875 27.81375 -1.9375 26.6875 C-3.07634211 22.73504798 -3.68819591 21.35312396 -7 19 C-9.66171046 18.10766412 -12.23522098 17.5529558 -15 17 C-14.505 15.515 -14.505 15.515 -14 14 C-12.0390625 13.19140625 -12.0390625 13.19140625 -9.625 12.5625 C-6.04074856 11.46124626 -6.04074856 11.46124626 -3.0625 9.25 C-1.64681544 6.25207976 -0.80266308 3.21065234 0 0 Z " fill="#1C1C1C" transform="translate(34,107)"/>
<path d="M0 0 C22.77 0 45.54 0 69 0 C69 1.32 69 2.64 69 4 C45.9 4 22.8 4 -1 4 C-0.67 2.68 -0.34 1.36 0 0 Z " fill="#BEBEBE" transform="translate(21,66)"/>
<path d="M0 0 C5.94 0 11.88 0 18 0 C18 4.95 18 9.9 18 15 C12.06 15 6.12 15 0 15 C0 10.05 0 5.1 0 0 Z " fill="#111111" transform="translate(536,45)"/>
<path d="M0 0 C0.99 0 1.98 0 3 0 C3.01458252 1.19077148 3.02916504 2.38154297 3.04418945 3.60839844 C3.10219235 8.02927577 3.17942515 12.44964481 3.26245117 16.87011719 C3.29569114 18.78279364 3.32372599 20.69556797 3.34643555 22.60839844 C3.37999869 25.35914794 3.43231489 28.10900132 3.48828125 30.859375 C3.49786613 32.14083405 3.49786613 32.14083405 3.50764465 33.44818115 C3.58920335 36.74662996 3.78660601 39.43284426 4.953125 42.53320312 C8.40063462 45.00369905 12.12895975 44.60361371 16.26171875 44.609375 C17.16751175 44.62591125 18.07330475 44.64244751 19.00654602 44.65948486 C21.90026552 44.7080787 24.79345913 44.72936085 27.6875 44.75 C29.64911516 44.77815019 31.61070571 44.80807627 33.57226562 44.83984375 C38.38146713 44.91384065 43.19037474 44.96334561 48 45 C48 45.99 48 46.98 48 48 C42.41330092 48.09914961 36.82711814 48.17160105 31.23974609 48.21972656 C29.34056675 48.23979629 27.44144885 48.26705851 25.54248047 48.30175781 C22.80681161 48.35048109 20.07196229 48.37301507 17.3359375 48.390625 C16.49195404 48.41127014 15.64797058 48.43191528 14.77841187 48.45318604 C9.38380162 48.45522238 6.21564956 47.69162934 2 44 C0.29546685 41.19861786 -0.24769182 39.13530772 -0.22705078 35.87402344 C-0.22689972 35.07349548 -0.22674866 34.27296753 -0.22659302 33.44818115 C-0.21110916 32.16672211 -0.21110916 32.16672211 -0.1953125 30.859375 C-0.1924826 29.97719299 -0.18965271 29.09501099 -0.18673706 28.18609619 C-0.17555961 25.37392501 -0.15045951 22.5620746 -0.125 19.75 C-0.11496705 17.84115044 -0.10584175 15.93229588 -0.09765625 14.0234375 C-0.07562824 9.34883511 -0.04111511 4.67447191 0 0 Z " fill="#1D1D1D" transform="translate(45,128)"/>
<path d="M0 0 C0.99 0 1.98 0 3 0 C3 19.47 3 38.94 3 59 C12.9 59 22.8 59 33 59 C33 59.66 33 60.32 33 61 C22.11 61 11.22 61 0 61 C0 40.87 0 20.74 0 0 Z " fill="#2D2D2D" transform="translate(54,94)"/>
<path d="M0 0 C22.44 0 44.88 0 68 0 C68 0.99 68 1.98 68 3 C45.56 3 23.12 3 0 3 C0 2.01 0 1.02 0 0 Z " fill="#FCFCFC" transform="translate(21,78)"/>
<path d="M0 0 C22.44 0 44.88 0 68 0 C68 0.99 68 1.98 68 3 C45.56 3 23.12 3 0 3 C0 2.01 0 1.02 0 0 Z " fill="#FCFCFC" transform="translate(21,55)"/>
<path d="M0 0 C15.18 0 30.36 0 46 0 C46 0.99 46 1.98 46 3 C30.82 3 15.64 3 0 3 C0 2.01 0 1.02 0 0 Z " fill="#323232" transform="translate(104,64)"/>
<path d="M0 0 C9.57 0 19.14 0 29 0 C29 1.32 29 2.64 29 4 C19.1 4 9.2 4 -1 4 C-0.67 2.68 -0.34 1.36 0 0 Z " fill="#BBBBBB" transform="translate(21,43)"/>
<path d="M0 0 C0.99 0 1.98 0 3 0 C3 7.59 3 15.18 3 23 C2.01 23 1.02 23 0 23 C0 15.41 0 7.82 0 0 Z " fill="#1C1C1C" transform="translate(45,94)"/>
</svg>
